<svg xmlns="http://www.w3.org/2000/svg" xmlns:xlink="http://www.w3.org/1999/xlink" viewBox="0,0,256,256" width="48px" height="48px" fill-rule="nonzero"><defs><linearGradient x1="4.929" y1="4.929" x2="19.071" y2="19.071" gradientUnits="userSpaceOnUse" id="color-1"><stop offset="0" stop-color="#000000" stop-opacity="0.6"></stop><stop offset="1" stop-color="#ffffff" stop-opacity="0.3"></stop></linearGradient><linearGradient x1="4.929" y1="4.929" x2="19.071" y2="19.071" gradientUnits="userSpaceOnUse" id="color-2"><stop offset="0" stop-color="#000000" stop-opacity="0.6"></stop><stop offset="0.493" stop-color="#ffffff" stop-opacity="0"></stop><stop offset="0.997" stop-color="#ffffff" stop-opacity="0.3"></stop></linearGradient><linearGradient x1="8.793" y1="8.793" x2="15.207" y2="15.207" gradientUnits="userSpaceOnUse" id="color-3"><stop offset="0" stop-color="#ffffff" stop-opacity="0.7"></stop><stop offset="0.519" stop-color="#ffffff" stop-opacity="0.45"></stop><stop offset="1" stop-color="#ffffff" stop-opacity="0.55"></stop></linearGradient></defs><g fill="none" fill-rule="nonzero" stroke="none" stroke-width="1" stroke-linecap="butt" stroke-linejoin="miter" stroke-miterlimit="10" stroke-dasharray="" stroke-dashoffset="0" font-family="none" font-weight="none" font-size="none" text-anchor="none" style="mix-blend-mode: normal"><g transform="scale(10.66667,10.66667)"><circle cx="12" cy="12" r="10" fill="url(#color-1)"></circle><path d="M12,2.5c5.238,0 9.5,4.262 9.5,9.5c0,5.238 -4.262,9.5 -9.5,9.5c-5.238,0 -9.5,-4.262 -9.5,-9.5c0,-5.238 4.262,-9.5 9.5,-9.5M12,2c-5.523,0 -10,4.477 -10,10c0,5.523 4.477,10 10,10c5.523,0 10,-4.477 10,-10c0,-5.523 -4.477,-10 -10,-10z" fill="url(#color-2)"></path><path d="M17,11h-4v-4c0,-0.552 -0.448,-1 -1,-1c-0.552,0 -1,0.448 -1,1v4h-4c-0.552,0 -1,0.448 -1,1c0,0.552 0.448,1 1,1h4v4c0,0.552 0.448,1 1,1c0.552,0 1,-0.448 1,-1v-4h4c0.552,0 1,-0.448 1,-1c0,-0.552 -0.448,-1 -1,-1z" fill="url(#color-3)"></path></g></g></svg>