<svg width="897" height="260" viewBox="0 0 897 260" fill="none" xmlns="http://www.w3.org/2000/svg">
<g clip-path="url(#clip0_15_2)">
<path d="M0 0C296.01 0 592.02 0 897 0C897 85.8 897 171.6 897 260C600.99 260 304.98 260 0 260C0 174.2 0 88.4 0 0Z" fill="#C4C4C4"/>
<path d="M220 173C409.75 173 599.5 173 795 173C795 177.62 795 182.24 795 187C605.25 187 415.5 187 220 187C220 182.38 220 177.76 220 173Z" fill="black"/>
<path d="M363 83C367.95 83 372.9 83 378 83C378.918 84.6423 379.836 86.2845 380.781 87.9766C382.021 90.1927 383.26 92.4089 384.5 94.625C385.137 95.7646 385.774 96.9042 386.43 98.0784C389.167 102.968 391.903 107.857 394.711 112.707C395.085 113.354 395.46 114.001 395.846 114.667C396.807 116.321 397.775 117.971 398.742 119.621C400 122 400 122 400 124C400.99 124 401.98 124 403 124C403.099 123.3 403.198 122.601 403.3 121.88C404.122 118.497 405.492 115.954 407.203 112.922C407.523 112.351 407.842 111.78 408.172 111.192C409.192 109.374 410.221 107.562 411.25 105.75C411.926 104.549 412.602 103.347 413.277 102.145C414.581 99.8256 415.888 97.5089 417.197 95.1934C419.485 91.1401 421.746 87.072 424 83C429.28 83 434.56 83 440 83C440 105.77 440 128.54 440 152C434.72 152 429.44 152 424 152C423.67 139.13 423.34 126.26 423 113C417.823 122.408 417.823 122.408 412.649 131.818C411.998 133 411.347 134.181 410.695 135.363C410.36 135.974 410.025 136.585 409.679 137.214C408.205 139.887 406.695 142.458 405 145C403.055 145.293 403.055 145.293 400.875 145.188C399.596 145.126 398.317 145.064 397 145C396.371 143.863 395.742 142.726 395.094 141.555C394.229 139.995 393.365 138.435 392.5 136.875C392.09 136.134 391.68 135.393 391.258 134.629C387.237 127.38 383.114 120.2 379 113C378.67 125.87 378.34 138.74 378 152C373.05 152 368.1 152 363 152C363 129.23 363 106.46 363 83Z" fill="black"/>
<path d="M517 83.0002C522.878 82.9177 528.756 82.8352 534.812 82.7502C537.56 82.6956 537.56 82.6956 540.363 82.6399C552.193 82.5018 562.485 83.4369 571.406 92.1018C576.235 97.8541 576.655 104.406 576.484 111.738C575.496 118.394 572.007 123.168 567.125 127.625C566.073 128.306 566.073 128.306 565 129C565.617 132.272 566.762 134.365 568.723 137.039C569.53 138.157 569.53 138.157 570.354 139.297C571.199 140.45 571.199 140.45 572.062 141.625C573.183 143.156 574.299 144.69 575.41 146.227C575.907 146.903 576.403 147.579 576.914 148.276C578 150 578 150 578 152C572.012 153.078 565.853 154.119 560 152C554.506 147.269 551.173 140.416 548 134C547.67 133.34 547.34 132.68 547 132C543.724 131.53 543.724 131.53 539.938 131.375C537.648 131.251 535.359 131.128 533 131C533 137.6 533 144.2 533 151C527.72 151 522.44 151 517 151C517 128.56 517 106.12 517 83.0002Z" fill="black"/>
<path d="M156.281 60.7344C157.123 60.7318 157.965 60.7292 158.832 60.7266C160.153 60.7382 160.153 60.7382 161.5 60.75C162.38 60.7423 163.261 60.7345 164.168 60.7266C165.01 60.7291 165.851 60.7317 166.719 60.7344C167.878 60.7378 167.878 60.7378 169.061 60.7412C171 61 171 61 173 63C173.252 65.3332 173.252 65.3332 173.254 68.3142C173.26 69.4416 173.265 70.5689 173.271 71.7304C173.267 72.9731 173.263 74.2158 173.259 75.4961C173.262 76.8002 173.266 78.1042 173.269 79.4478C173.279 83.0304 173.275 86.6128 173.269 90.1954C173.264 93.9394 173.268 97.6835 173.271 101.427C173.275 107.716 173.27 114.004 173.261 120.292C173.25 127.569 173.253 134.845 173.264 142.122C173.273 148.362 173.275 154.602 173.269 160.843C173.266 164.573 173.266 168.303 173.273 172.033C173.279 176.19 173.27 180.347 173.259 184.504C173.263 185.747 173.267 186.989 173.271 188.27C173.265 189.397 173.26 190.524 173.254 191.686C173.253 192.67 173.252 193.653 173.252 194.667C173 197 173 197 171 199C168.041 199.444 165.05 199.324 162.062 199.312C161.238 199.329 160.414 199.345 159.564 199.361C158.771 199.362 157.978 199.363 157.16 199.363C156.072 199.368 156.072 199.368 154.961 199.372C152.36 198.878 151.613 198.089 150 196C149.625 193.559 149.625 193.559 149.626 190.604C149.619 189.483 149.612 188.363 149.604 187.209C149.612 185.979 149.62 184.749 149.628 183.482C149.624 182.188 149.62 180.893 149.617 179.56C149.607 176.008 149.617 172.457 149.63 168.905C149.641 165.192 149.637 161.478 149.635 157.765C149.634 151.53 149.645 145.295 149.664 139.06C149.685 131.845 149.688 124.631 149.682 117.416C149.677 110.482 149.682 103.547 149.693 96.6131C149.698 93.659 149.699 90.7049 149.697 87.7508C149.695 83.6299 149.709 79.5093 149.725 75.3884C149.723 74.1567 149.72 72.9249 149.718 71.6559C149.725 70.5384 149.732 69.4209 149.739 68.2695C149.741 67.2945 149.743 66.3194 149.745 65.3148C150.221 60.9903 152.464 60.7455 156.281 60.7344Z" fill="black"/>
<path d="M675 83C680.94 83 686.88 83 693 83C693.722 84.9388 694.444 86.8775 695.188 88.875C696.782 93.0333 698.446 97.0489 700.5 101C702.45 104.754 704.019 108.538 705.5 112.5C707.35 117.445 709.456 122.114 711.879 126.801C713.41 129.804 714.7 132.891 716 136C716.683 137.564 717.371 139.127 718.062 140.688C718.383 141.413 718.704 142.139 719.035 142.887C719.684 144.307 720.381 145.707 721.121 147.082C722 149 722 149 722 152C716.39 152 710.78 152 705 152C702.552 147.267 700.704 143.112 699 138C688.77 138 678.54 138 668 138C666.35 142.62 664.7 147.24 663 152C657.39 152 651.78 152 646 152C647.125 145.25 647.125 145.25 648.5 142.227C648.805 141.547 649.11 140.866 649.424 140.165C649.756 139.444 650.088 138.723 650.43 137.98C650.776 137.212 651.123 136.444 651.48 135.652C652.605 133.161 653.74 130.674 654.875 128.188C655.649 126.477 656.423 124.767 657.195 123.056C658.356 120.485 659.518 117.913 660.683 115.343C664.027 107.959 667.309 100.549 670.562 93.125C671.021 92.0811 671.479 91.0372 671.951 89.9617C672.968 87.6416 673.984 85.3209 675 83Z" fill="black"/>
<path d="M728 82.9998C733.61 82.9998 739.22 82.9998 745 82.9998C745.495 97.3548 745.495 97.3548 746 112C748.042 109.814 750.084 107.627 752.188 105.375C752.878 104.649 753.569 103.923 754.281 103.175C757.429 99.8583 760.423 96.5282 763.191 92.8865C770.43 83.6611 770.43 83.6611 775.321 82.4026C780.626 81.8203 785.733 82.2549 791 82.9998C787.59 87.8088 784.026 92.1128 779.793 96.2146C774.845 101.141 770.44 106.618 766 112C767.34 114.832 768.852 117.333 770.688 119.871C771.217 120.604 771.746 121.337 772.292 122.093C772.855 122.866 773.419 123.64 774 124.437C774.577 125.235 775.155 126.032 775.749 126.854C780.057 132.779 784.503 138.577 789.074 144.301C790.879 146.83 792.003 149.072 793 152C777.124 154.221 777.124 154.221 772.133 150.673C768.825 147.162 766.446 143.078 764.101 138.885C762.595 136.305 760.774 134.05 758.875 131.75C756.929 129.348 755.994 127.981 755 125C750.962 127.131 748.431 129.111 746 133C745.383 136.266 745.304 139.494 745.25 142.812C745.206 144.138 745.206 144.138 745.16 145.49C745.09 147.659 745.043 149.83 745 152C739.39 152 733.78 152 728 152C728 129.23 728 106.46 728 82.9998Z" fill="black"/>
<path d="M278.5 88.1249C279.325 88.7437 280.15 89.3624 281 89.9999C281.99 90.6599 282.98 91.3199 284 91.9999C283.463 95.8509 281.884 97.3179 278.937 99.7499C277.837 100.67 277.837 100.67 276.715 101.609C276.149 102.068 275.583 102.527 275 103C272.674 102.128 270.438 101.265 268.308 99.9765C262.348 96.4677 256.808 96.1191 250 96.9999C243.288 98.7958 239.471 103.151 236 109C234.083 114.752 234.079 120.78 236.687 126.312C239.884 131.876 243.906 135.815 250 138C256.14 138.567 261.865 137.767 268 137C268 130.4 268 123.8 268 117C272.95 117 277.9 117 283 117C283 126.24 283 135.48 283 145C280.628 146.134 278.256 147.269 275.812 148.437C275.075 148.794 274.337 149.15 273.577 149.517C264.251 153.922 253.03 154.573 242.945 152.316C233.102 148.621 225.233 141.951 220.777 132.371C216.831 122.655 215.538 114.539 218.969 104.375C222.795 95.5632 230.809 87.7382 239.375 83.4999C251.99 79.0776 267.382 80.9641 278.5 88.1249Z" fill="black"/>
<path d="M589 83C606.16 83 623.32 83 641 83C641 87.29 641 91.58 641 96C629.12 96 617.24 96 605 96C605 100.62 605 105.24 605 110C615.56 110 626.12 110 637 110C637 114.29 637 118.58 637 123C626.44 123 615.88 123 605 123C605 128.28 605 133.56 605 139C617.21 139 629.42 139 642 139C642 142.96 642 146.92 642 151C624.51 151 607.02 151 589 151C589 128.56 589 106.12 589 83Z" fill="black"/>
<path d="M455 83C472.49 83 489.98 83 508 83C508 87.29 508 91.58 508 96C496.12 96 484.24 96 472 96C472 101.94 472 107.88 472 114C482.56 114 493.12 114 504 114C504 118.29 504 122.58 504 127C493.44 127 482.88 127 472 127C472 135.25 472 143.5 472 152C466.39 152 460.78 152 455 152C455 129.23 455 106.46 455 83Z" fill="black"/>
<path d="M289 83.0002C294.61 83.0002 300.22 83.0002 306 83.0002C308.011 86.5889 308.011 86.5889 310.062 90.2502C311.705 93.1687 313.352 96.0845 315 99.0002C315.357 99.6336 315.713 100.267 316.081 100.92C317.027 102.596 317.982 104.267 318.938 105.938C319.483 106.895 320.028 107.853 320.59 108.84C321.819 111.12 321.819 111.12 324 112C324.274 111.294 324.549 110.587 324.832 109.859C334.731 85.6406 334.731 85.6406 342.225 81.8854C347.01 80.9125 351.352 81.6962 356 83.0002C355.334 86.4744 353.947 89.076 352.156 92.1134C351.573 93.1059 350.99 94.0983 350.389 95.1208C349.766 96.1741 349.142 97.2274 348.5 98.3127C347.869 99.4021 347.239 100.491 346.589 101.614C341.236 110.815 341.236 110.815 338.105 115.004C329.889 126.258 330.744 138.463 331 152C325.39 152 319.78 152 314 152C314.032 150.297 314.064 148.594 314.098 146.84C314.125 133.402 313.603 123.878 305.474 113.082C302.354 108.676 299.766 103.919 297.062 99.2502C295.952 97.3582 294.838 95.4675 293.723 93.5783C293.007 92.3625 293.007 92.3625 292.278 91.1222C291.232 89.3857 290.124 87.6867 289 86.0002C289 85.0102 289 84.0202 289 83.0002Z" fill="black"/>
<path d="M135.125 82.875C137.016 82.8711 137.016 82.8711 138.945 82.8672C142 83 142 83 143 84C143.101 86.7945 143.136 89.5644 143.129 92.3594C143.131 93.2357 143.133 94.1121 143.135 95.015C143.139 97.9267 143.136 100.838 143.133 103.75C143.134 105.764 143.135 107.778 143.136 109.792C143.137 114.019 143.135 118.246 143.13 122.473C143.125 127.904 143.128 133.335 143.134 138.766C143.138 142.927 143.137 147.087 143.134 151.248C143.133 153.251 143.134 155.254 143.136 157.257C143.139 160.052 143.135 162.846 143.129 165.641C143.132 166.477 143.134 167.313 143.136 168.175C143.114 173.886 143.114 173.886 142 175C139.508 175.127 137.055 175.185 134.563 175.188C133.868 175.2 133.174 175.212 132.459 175.225C130.638 175.23 128.817 175.122 127 175C124.405 172.405 124.764 170.638 124.751 167.103C124.758 166.278 124.766 165.453 124.773 164.603C124.773 163.735 124.772 162.866 124.772 161.972C124.774 159.093 124.789 156.215 124.805 153.336C124.809 151.343 124.811 149.351 124.813 147.358C124.821 142.107 124.841 136.857 124.863 131.606C124.883 126.25 124.892 120.895 124.902 115.539C124.924 105.026 124.958 94.513 125 84C128.534 82.8221 131.403 82.8674 135.125 82.875Z" fill="black"/>
<path d="M107.688 105.867C108.781 105.87 109.874 105.872 111 105.875C112.093 105.872 113.186 105.87 114.313 105.867C117 106 117 106 118 107C118.093 108.443 118.118 109.89 118.114 111.336C118.113 112.257 118.113 113.178 118.113 114.127C118.108 115.128 118.103 116.129 118.098 117.16C118.096 118.18 118.095 119.199 118.093 120.25C118.088 123.521 118.075 126.792 118.063 130.062C118.058 132.274 118.053 134.486 118.049 136.697C118.038 142.132 118.021 147.566 118 153C116.042 153.081 114.084 153.139 112.125 153.188C110.489 153.24 110.489 153.24 108.82 153.293C107.89 153.196 106.959 153.1 106 153C103.931 149.896 103.75 149.241 103.757 145.728C103.754 144.871 103.751 144.013 103.748 143.13C103.755 142.208 103.762 141.286 103.77 140.336C103.77 139.388 103.77 138.44 103.771 137.464C103.774 135.462 103.782 133.459 103.794 131.457C103.813 128.38 103.815 125.304 103.814 122.227C103.819 120.284 103.825 118.341 103.832 116.398C103.833 115.472 103.834 114.546 103.835 113.592C103.842 112.741 103.848 111.89 103.855 111.013C103.859 110.261 103.862 109.508 103.866 108.733C104.091 105.816 104.751 106.012 107.688 105.867Z" fill="black"/>
<path d="M533 96.0002C537.022 95.9074 537.022 95.9074 541.125 95.8127C541.958 95.7854 542.791 95.7581 543.649 95.73C549.369 95.6665 553.214 96.836 557.82 100.414C560.126 103.514 560.106 107.244 560 111C558.323 115.287 556.133 117.098 552 119C548.717 119.359 545.484 119.283 542.188 119.188C539.156 119.126 536.124 119.064 533 119C533 111.41 533 103.82 533 96.0002Z" fill="#C4C4C4"/>
<path d="M683 100C686.349 102.675 687.22 105.895 688.562 109.875C690.247 114.858 690.247 114.858 692.152 119.758C693 122 693 122 693 125C686.73 125 680.46 125 674 125C674.719 120.687 675.306 117.956 677.035 114.145C678.311 111.308 679.496 108.436 680.688 105.562C681.124 104.512 681.561 103.461 682.012 102.379C682.338 101.594 682.664 100.809 683 100Z" fill="#C4C4C4"/>
<path d="M668 137C678.23 137 688.46 137 699 137C699 137.99 699 138.98 699 140C698.107 139.984 697.214 139.969 696.294 139.952C692.978 139.901 689.663 139.864 686.347 139.835C684.913 139.82 683.478 139.8 682.044 139.774C679.981 139.737 677.919 139.72 675.855 139.707C673.994 139.683 673.994 139.683 672.094 139.659C669.001 139.724 669.001 139.724 667.072 141.518C666.718 142.007 666.364 142.496 666 143C666.66 141.02 667.32 139.04 668 137Z" fill="#C4C4C4"/>
<path d="M241.375 99C242.035 99.33 242.695 99.66 243.375 100C242.881 100.543 242.388 101.085 241.879 101.645C241.238 102.36 240.598 103.075 239.938 103.812C239.299 104.52 238.661 105.228 238.004 105.957C235.109 109.588 235.124 113.19 234.812 117.688C234.729 118.867 234.645 120.046 234.559 121.262C234.498 122.165 234.437 123.069 234.375 124C231.925 121.55 232.052 120.753 232 117.375C232.145 110.655 234.436 105.769 239.125 101C239.868 100.34 240.61 99.68 241.375 99Z" fill="black"/>
<path d="M574 146C575.376 147.29 576.708 148.627 578 150C578 150.66 578 151.32 578 152C572.06 152 566.12 152 560 152C559.67 151.34 559.34 150.68 559 150C564.28 150 569.56 150 575 150C574.67 148.68 574.34 147.36 574 146Z" fill="black"/>
<path d="M755 125C755 125.66 755 126.32 755 127C753.504 128.219 753.504 128.219 751.562 129.5C748.775 131.287 748.775 131.287 747 134C746.85 135.373 746.752 136.753 746.684 138.133C746.621 139.341 746.621 139.341 746.557 140.574C746.517 141.416 746.478 142.258 746.437 143.125C746.394 143.974 746.351 144.824 746.307 145.699C746.2 147.799 746.1 149.9 746 152C745.67 152 745.34 152 745 152C743.795 133.023 743.795 133.023 748.312 127.812C750.847 125.459 751.46 125 755 125Z" fill="#C4C4C4"/>
<path d="M782.25 82.7498C783.09 82.7679 783.931 82.7859 784.797 82.8045C786.865 82.8515 788.933 82.9233 791 82.9998C790.34 83.6598 789.68 84.3198 789 84.9998C786.748 84.9883 784.497 84.892 782.25 84.7498C777.281 84.5388 777.281 84.5388 772.812 86.328C771.052 88.1513 771.052 88.1513 769 90.9998C768.34 90.9998 767.68 90.9998 767 90.9998C770.358 83.1648 774.325 82.4279 782.25 82.7498Z" fill="black"/>
<path d="M234 88C232.552 91.4443 230.723 93.3613 227.875 95.75C226.788 96.6704 226.788 96.6704 225.68 97.6094C225.125 98.0683 224.571 98.5272 224 99C224 96 224 96 225.68 93.957C226.766 92.8955 226.766 92.8955 227.875 91.8125C228.594 91.0971 229.314 90.3816 230.055 89.6445C232 88 232 88 234 88Z" fill="black"/>
<path d="M340 83C345.28 83 350.56 83 356 83C355.67 83.99 355.34 84.98 355 86C355 85.34 355 84.68 355 84C352.896 84.1411 350.791 84.288 348.688 84.4375C347.516 84.5187 346.344 84.5999 345.137 84.6836C341.974 84.8867 341.974 84.8867 339 86C339.33 85.01 339.66 84.02 340 83Z" fill="black"/>
<path d="M755 125C755 125.66 755 126.32 755 127C753.469 128.289 753.469 128.289 751.5 129.625C750.85 130.071 750.201 130.517 749.531 130.977C749.026 131.314 748.521 131.652 748 132C747.34 131.67 746.68 131.34 746 131C746.928 129.991 747.868 128.993 748.812 128C749.335 127.443 749.857 126.886 750.395 126.312C752 125 752 125 755 125Z" fill="#C4C4C4"/>
<path d="M241 98C241.66 98.33 242.32 98.66 243 99C240.69 101.64 238.38 104.28 236 107C235.67 106.34 235.34 105.68 235 105C236.98 102.69 238.96 100.38 241 98Z" fill="black"/>
<path d="M683 100C683.99 100.99 684.98 101.98 686 103C685.67 103.66 685.34 104.32 685 105C684.34 105 683.68 105 683 105C682.34 106.32 681.68 107.64 681 109C680.67 108.34 680.34 107.68 680 107C680.936 104.64 681.933 102.304 683 100Z" fill="#C4C4C4"/>
</g>
<defs>
<clipPath id="clip0_15_2">
<rect width="897" height="260" fill="white"/>
</clipPath>
</defs>
</svg>
