<?xml version="1.0" encoding="UTF-8"?>
<svg version="1.1" xmlns="http://www.w3.org/2000/svg" width="897" height="260">
<path d="M0 0 C296.01 0 592.02 0 897 0 C897 85.8 897 171.6 897 260 C600.99 260 304.98 260 0 260 C0 174.2 0 88.4 0 0 Z " fill="#010101" transform="translate(0,0)"/>
<path d="M0 0 C189.75 0 379.5 0 575 0 C575 4.62 575 9.24 575 14 C385.25 14 195.5 14 0 14 C0 9.38 0 4.76 0 0 Z " fill="#F2F3F3" transform="translate(220,173)"/>
<path d="M0 0 C4.95 0 9.9 0 15 0 C15.9178125 1.64226562 16.835625 3.28453125 17.78125 4.9765625 C19.02077138 7.19274299 20.26035901 9.40888642 21.5 11.625 C22.13695801 12.76461182 22.77391602 13.90422363 23.43017578 15.07836914 C26.16677953 19.9684401 28.90335424 24.85727316 31.7109375 29.70703125 C32.08541016 30.35397949 32.45988281 31.00092773 32.84570312 31.66748047 C33.80724677 33.32098888 34.77450309 34.97117159 35.7421875 36.62109375 C37 39 37 39 37 41 C37.99 41 38.98 41 40 41 C40.09893555 40.30036133 40.19787109 39.60072266 40.29980469 38.87988281 C41.12229186 35.49701715 42.49187227 32.95363665 44.203125 29.921875 C44.52279236 29.35100159 44.84245972 28.78012817 45.17181396 28.19195557 C46.19151211 26.37430287 47.22050733 24.56211967 48.25 22.75 C48.92641292 21.54853249 49.60219989 20.34671235 50.27734375 19.14453125 C51.58070823 16.82558289 52.88788718 14.50893359 54.19726562 12.19335938 C56.48541049 8.14014501 58.74553227 4.07202312 61 0 C66.28 0 71.56 0 77 0 C77 22.77 77 45.54 77 69 C71.72 69 66.44 69 61 69 C60.67 56.13 60.34 43.26 60 30 C54.82300396 39.40801119 54.82300396 39.40801119 49.64892578 48.81762695 C48.99782679 49.99956981 48.34662903 51.18145826 47.6953125 52.36328125 C47.36007568 52.97409546 47.02483887 53.58490967 46.67944336 54.2142334 C45.2050392 56.88693401 43.69473205 59.45790193 42 62 C40.0546875 62.29296875 40.0546875 62.29296875 37.875 62.1875 C36.59625 62.125625 35.3175 62.06375 34 62 C33.3709375 60.86304688 32.741875 59.72609375 32.09375 58.5546875 C31.22921467 56.99476506 30.36462854 55.43487078 29.5 53.875 C29.09007812 53.13378906 28.68015625 52.39257812 28.2578125 51.62890625 C24.23718755 44.37959763 20.1140811 37.19964193 16 30 C15.67 42.87 15.34 55.74 15 69 C10.05 69 5.1 69 0 69 C0 46.23 0 23.46 0 0 Z " fill="#F4F4F2" transform="translate(363,83)"/>
<path d="M0 0 C5.878125 -0.0825 11.75625 -0.165 17.8125 -0.25 C20.55977417 -0.30462402 20.55977417 -0.30462402 23.36254883 -0.36035156 C35.19342538 -0.49837358 45.48546855 0.43670511 54.40625 9.1015625 C59.23538923 14.85391952 59.65469317 21.40608405 59.484375 28.73828125 C58.49605895 35.39347404 55.00674824 40.16775161 50.125 44.625 C49.073125 45.305625 49.073125 45.305625 48 46 C48.61747265 49.27155383 49.76164281 51.36446248 51.72265625 54.0390625 C52.52993164 55.15667969 52.52993164 55.15667969 53.35351562 56.296875 C54.19946289 57.44929688 54.19946289 57.44929688 55.0625 58.625 C56.18260868 60.15577282 57.29871202 61.68948716 58.41015625 63.2265625 C58.90652588 63.90283691 59.40289551 64.57911133 59.91430664 65.27587891 C61 67 61 67 61 69 C55.01216317 70.07781063 48.8525383 71.11883222 43 69 C37.50582454 64.26901546 34.17287182 57.41575184 31 51 C30.67 50.34 30.34 49.68 30 49 C26.72444392 48.52998967 26.72444392 48.52998967 22.9375 48.375 C20.648125 48.25125 18.35875 48.1275 16 48 C16 54.6 16 61.2 16 68 C10.72 68 5.44 68 0 68 C0 45.56 0 23.12 0 0 Z " fill="#F9F9F7" transform="translate(517,83)"/>
<path d="M0 0 C0.84175781 -0.00257812 1.68351563 -0.00515625 2.55078125 -0.0078125 C3.87142578 0.00378906 3.87142578 0.00378906 5.21875 0.015625 C6.09917969 0.00789063 6.97960937 0.00015625 7.88671875 -0.0078125 C8.72847656 -0.00523438 9.57023438 -0.00265625 10.4375 0 C11.59668945 0.00338379 11.59668945 0.00338379 12.77929688 0.00683594 C14.71875 0.265625 14.71875 0.265625 16.71875 2.265625 C16.97043228 4.59886169 16.97043228 4.59886169 16.97271729 7.57983398 C16.97835693 8.70718964 16.98399658 9.83454529 16.98980713 10.99606323 C16.98575867 12.23872955 16.98171021 13.48139587 16.97753906 14.76171875 C16.9810437 16.06577667 16.98454834 17.36983459 16.98815918 18.71340942 C16.99729644 22.29599325 16.99373348 25.87846222 16.98740101 29.46104813 C16.9823479 33.20507371 16.98703054 36.94908927 16.99017334 40.69311523 C16.993815 46.98130057 16.98900866 53.26943897 16.97949219 59.55761719 C16.96860723 66.83421432 16.97213267 74.1106994 16.983145 81.38729382 C16.99221219 87.62766322 16.99350595 93.86799883 16.98826766 100.10837269 C16.98514482 103.8386144 16.98474718 107.56880339 16.99134064 111.29904175 C16.99817461 115.45593943 16.98871065 119.61264301 16.97753906 123.76953125 C16.98158752 125.01219757 16.98563599 126.25486389 16.98980713 127.53518677 C16.98416748 128.66254242 16.97852783 129.78989807 16.97271729 130.95141602 C16.97196323 131.93513687 16.97120918 132.91885773 16.97043228 133.93238831 C16.71875 136.265625 16.71875 136.265625 14.71875 138.265625 C11.76022891 138.70922572 8.76926549 138.58975152 5.78125 138.578125 C4.95689453 138.59423828 4.13253906 138.61035156 3.28320312 138.62695312 C2.48978516 138.62759766 1.69636719 138.62824219 0.87890625 138.62890625 C-0.20958618 138.63337769 -0.20958618 138.63337769 -1.32006836 138.63793945 C-3.92152393 138.14407418 -4.66843582 137.35416886 -6.28125 135.265625 C-6.65598011 132.82495785 -6.65598011 132.82495785 -6.6554718 129.86912537 C-6.66248611 128.7488092 -6.66950043 127.62849304 -6.67672729 126.47422791 C-6.66908356 125.2445076 -6.66143982 124.01478729 -6.65356445 122.74780273 C-6.65721512 121.45335236 -6.66086578 120.15890198 -6.66462708 118.82522583 C-6.6740401 115.27363061 -6.66460789 111.72231076 -6.65129495 108.17073703 C-6.63998927 104.45741652 -6.64408721 100.74410975 -6.64604187 97.03077698 C-6.64692502 90.79561862 -6.63583927 84.56056895 -6.61743164 78.32543945 C-6.59625439 71.11073098 -6.59275596 63.89618166 -6.5989936 56.6814484 C-6.60468237 49.74720111 -6.59904796 42.81301002 -6.58782005 35.87877083 C-6.58316854 32.92465237 -6.58230258 29.9705682 -6.5844059 27.01644707 C-6.58663415 22.89556365 -6.57220079 18.77490448 -6.5559082 14.65405273 C-6.55838562 13.4223082 -6.56086304 12.19056366 -6.56341553 10.92149353 C-6.55633072 9.80399719 -6.54924591 8.68650085 -6.54194641 7.53514099 C-6.53989354 6.5600933 -6.53784067 5.5850456 -6.53572559 4.58045101 C-6.06032022 0.25594698 -3.81720416 0.0111428 0 0 Z " fill="#F5F5F5" transform="translate(156.28125,60.734375)"/>
<path d="M0 0 C5.94 0 11.88 0 18 0 C18.721875 1.93875 19.44375 3.8775 20.1875 5.875 C21.78166819 10.03330914 23.4462313 14.04894022 25.5 18 C27.4498857 21.75352997 29.0187329 25.53761052 30.5 29.5 C32.35001936 34.44502032 34.45614505 39.11375726 36.87890625 43.80078125 C38.40976572 46.80382614 39.6998998 49.89106473 41 53 C41.68338249 54.56430524 42.37108357 56.12672909 43.0625 57.6875 C43.38347656 58.41324219 43.70445312 59.13898438 44.03515625 59.88671875 C44.68378949 61.30740937 45.38066473 62.70694879 46.12109375 64.08203125 C47 66 47 66 47 69 C41.39 69 35.78 69 30 69 C27.55192605 64.26705702 25.70406761 60.11220282 24 55 C13.77 55 3.54 55 -7 55 C-8.65 59.62 -10.3 64.24 -12 69 C-17.61 69 -23.22 69 -29 69 C-27.87506025 62.25036152 -27.87506025 62.25036152 -26.50048828 59.22729492 C-26.19535812 58.54683609 -25.89022797 57.86637726 -25.57585144 57.16529846 C-25.24402359 56.44430466 -24.91219574 55.72331085 -24.5703125 54.98046875 C-24.22370071 54.21214218 -23.87708893 53.44381561 -23.51997375 52.65220642 C-22.39465085 50.16104757 -21.2598209 47.6743444 -20.125 45.1875 C-19.35084178 43.47741367 -18.57748937 41.76696232 -17.80493164 40.05615234 C-16.64360044 37.48455817 -15.48183563 34.91317347 -14.31745911 32.34295654 C-10.97308918 24.95903592 -7.69108647 17.54935442 -4.4375 10.125 C-3.97939941 9.08110107 -3.52129883 8.03720215 -3.04931641 6.96166992 C-2.0317489 4.641608 -1.0156658 2.32089507 0 0 Z " fill="#F4F4F3" transform="translate(675,83)"/>
<path d="M0 0 C5.61 0 11.22 0 17 0 C17.495 14.355 17.495 14.355 18 29 C20.041875 26.81375 22.08375 24.6275 24.1875 22.375 C24.87835693 21.64901611 25.56921387 20.92303223 26.28100586 20.17504883 C29.42922776 16.85855916 32.42267961 13.52839623 35.19140625 9.88671875 C42.43008558 0.66126769 42.43008558 0.66126769 47.32080078 -0.59716797 C52.6261903 -1.1795048 57.7325243 -0.74489555 63 0 C59.58997331 4.80901199 56.02559418 9.11302794 51.79296875 13.21484375 C46.84492477 18.14132762 42.44007462 23.61809137 38 29 C39.34039669 31.83221729 40.85196148 34.33371319 42.6875 36.87109375 C43.21690186 37.60432861 43.74630371 38.33756348 44.29174805 39.09301758 C44.85547119 39.86669678 45.41919434 40.64037598 46 41.4375 C46.5772583 42.23502686 47.1545166 43.03255371 47.74926758 43.85424805 C52.05711615 49.77924788 56.50286983 55.57724291 61.07421875 61.30078125 C62.8788479 63.83019047 64.00265319 66.07196044 65 69 C49.1239481 71.22100208 49.1239481 71.22100208 44.13330078 67.67285156 C40.82545669 64.16186764 38.44615393 60.07778113 36.10058594 55.88525391 C34.59461616 53.30559583 32.77430795 51.04976444 30.875 48.75 C28.92925051 46.34807001 27.99378836 44.98136507 27 42 C22.96227955 44.13101913 20.43057182 46.11108509 18 50 C17.38291625 53.26667799 17.30443947 56.49416659 17.25 59.8125 C17.20552734 61.13797852 17.20552734 61.13797852 17.16015625 62.49023438 C17.0897961 64.65967218 17.04259393 66.82983948 17 69 C11.39 69 5.78 69 0 69 C0 46.23 0 23.46 0 0 Z " fill="#F9F9F8" transform="translate(728,83)"/>
<path d="M0 0 C0.825 0.61875 1.65 1.2375 2.5 1.875 C3.49 2.535 4.48 3.195 5.5 3.875 C4.96324097 7.72603301 3.38399077 9.19297587 0.4375 11.625 C-0.66271484 12.54539062 -0.66271484 12.54539062 -1.78515625 13.484375 C-2.35105469 13.94328125 -2.91695313 14.4021875 -3.5 14.875 C-5.82550347 14.0029362 -8.06200175 13.14002435 -10.19140625 11.8515625 C-16.15138002 8.34276792 -21.69181339 7.99415645 -28.5 8.875 C-35.21197909 10.67084725 -39.02911484 15.02613816 -42.5 20.875 C-44.41722547 26.6266764 -44.42100569 32.65494357 -41.8125 38.1875 C-38.61548577 43.75142651 -34.59395732 47.69037379 -28.5 49.875 C-22.36002073 50.44256111 -16.63509628 49.64188704 -10.5 48.875 C-10.5 42.275 -10.5 35.675 -10.5 28.875 C-5.55 28.875 -0.6 28.875 4.5 28.875 C4.5 38.115 4.5 47.355 4.5 56.875 C2.128125 58.009375 -0.24375 59.14375 -2.6875 60.3125 C-3.42508545 60.66884521 -4.1626709 61.02519043 -4.92260742 61.39233398 C-14.24937489 65.79688575 -25.46962678 66.44829324 -35.5546875 64.19140625 C-45.39833306 60.49620597 -53.26705365 53.8263511 -57.72265625 44.24609375 C-61.66845819 34.53008681 -62.96177784 26.41452694 -59.53125 16.25 C-55.70510517 7.43827252 -47.69119691 -0.38667261 -39.125 -4.625 C-26.50970016 -9.04726473 -11.11806924 -7.16079036 0 0 Z " fill="#F5F5F4" transform="translate(278.5,88.125)"/>
<path d="M0 0 C17.16 0 34.32 0 52 0 C52 4.29 52 8.58 52 13 C40.12 13 28.24 13 16 13 C16 17.62 16 22.24 16 27 C26.56 27 37.12 27 48 27 C48 31.29 48 35.58 48 40 C37.44 40 26.88 40 16 40 C16 45.28 16 50.56 16 56 C28.21 56 40.42 56 53 56 C53 59.96 53 63.92 53 68 C35.51 68 18.02 68 0 68 C0 45.56 0 23.12 0 0 Z " fill="#F7F8F7" transform="translate(589,83)"/>
<path d="M0 0 C17.49 0 34.98 0 53 0 C53 4.29 53 8.58 53 13 C41.12 13 29.24 13 17 13 C17 18.94 17 24.88 17 31 C27.56 31 38.12 31 49 31 C49 35.29 49 39.58 49 44 C38.44 44 27.88 44 17 44 C17 52.25 17 60.5 17 69 C11.39 69 5.78 69 0 69 C0 46.23 0 23.46 0 0 Z " fill="#F2F2F2" transform="translate(455,83)"/>
<path d="M0 0 C5.61 0 11.22 0 17 0 C19.0109375 3.58875 19.0109375 3.58875 21.0625 7.25 C22.70499364 10.1685572 24.35238921 13.08432925 26 16 C26.35674805 16.63341309 26.71349609 17.26682617 27.08105469 17.91943359 C28.02734503 19.59544346 28.98214674 21.26663955 29.9375 22.9375 C30.48277344 23.89527344 31.02804687 24.85304688 31.58984375 25.83984375 C32.81916176 28.11979024 32.81916176 28.11979024 35 29 C35.27440918 28.29335205 35.54881836 27.5867041 35.83154297 26.85864258 C45.73060573 2.64048005 45.73060573 2.64048005 53.22460938 -1.11474609 C58.00967255 -2.08768137 62.35177769 -1.30391691 67 0 C66.33372424 3.47422427 64.94652742 6.07581026 63.15625 9.11328125 C62.57319092 10.10569824 61.99013184 11.09811523 61.3894043 12.12060547 C60.76590088 13.17393066 60.14239746 14.22725586 59.5 15.3125 C58.86940674 16.40191895 58.23881348 17.49133789 57.58911133 18.61376953 C52.23583023 27.81482816 52.23583023 27.81482816 49.10546875 32.00390625 C40.88922571 43.25759213 41.74381022 55.46293201 42 69 C36.39 69 30.78 69 25 69 C25.03222656 67.29714844 25.06445312 65.59429687 25.09765625 63.83984375 C25.12531483 50.40172627 24.60302965 40.877457 16.47412109 30.08203125 C13.35429079 25.67561972 10.76608392 20.91845904 8.0625 16.25 C6.95153374 14.35801374 5.83840356 12.46729571 4.72265625 10.578125 C4.00734741 9.36237793 4.00734741 9.36237793 3.27758789 8.12207031 C2.23209658 6.38551184 1.12437161 4.68655741 0 3 C0 2.01 0 1.02 0 0 Z " fill="#F6F5F4" transform="translate(289,83)"/>
<path d="M0 0 C1.89105469 -0.00386719 1.89105469 -0.00386719 3.8203125 -0.0078125 C6.875 0.125 6.875 0.125 7.875 1.125 C7.97551875 3.91952271 8.01115894 6.68936355 8.00439453 9.484375 C8.00614685 10.36073608 8.00789917 11.23709717 8.00970459 12.14001465 C8.01412432 15.05169627 8.01118469 17.9633177 8.0078125 20.875 C8.0084855 22.88899752 8.0094555 24.90299495 8.01071167 26.91699219 C8.01218881 31.14388805 8.01003358 35.37076283 8.00537109 39.59765625 C7.9996738 45.02880532 8.00295272 50.45990499 8.00894356 55.89105225 C8.01254874 60.05159887 8.01141078 64.21213369 8.00881577 68.37268066 C8.00814638 70.37585455 8.00897533 72.37902949 8.01129532 74.38220215 C8.01382115 77.17670552 8.00998224 79.97112771 8.00439453 82.765625 C8.00641876 83.60202515 8.00844299 84.43842529 8.01052856 85.3001709 C7.98926242 91.01073758 7.98926242 91.01073758 6.875 92.125 C4.38261431 92.25153198 1.93029559 92.31019825 -0.5625 92.3125 C-1.25666016 92.32474609 -1.95082031 92.33699219 -2.66601562 92.34960938 C-4.48720901 92.35489842 -6.3078692 92.24669207 -8.125 92.125 C-10.71991025 89.53008975 -10.36091161 87.76254653 -10.37384033 84.22810364 C-10.36664978 83.40307846 -10.35945923 82.57805328 -10.35205078 81.72802734 C-10.35234283 80.85966751 -10.35263489 79.99130768 -10.35293579 79.09663391 C-10.35153917 76.21796782 -10.33596242 73.33955854 -10.3203125 70.4609375 C-10.31658355 68.4683954 -10.31373602 66.47585147 -10.31173706 64.48330688 C-10.30409132 59.23237061 -10.28443477 53.98154452 -10.2623291 48.73065186 C-10.24189091 43.37513724 -10.23273969 38.01960486 -10.22265625 32.6640625 C-10.20118975 22.15099319 -10.16704249 11.63800575 -10.125 1.125 C-6.59115441 -0.05294853 -3.72222447 -0.00764317 0 0 Z " fill="#F8F9F8" transform="translate(135.125,82.875)"/>
<path d="M0 0 C1.093125 0.00257812 2.18625 0.00515625 3.3125 0.0078125 C4.405625 0.00523438 5.49875 0.00265625 6.625 0 C9.3125 0.1328125 9.3125 0.1328125 10.3125 1.1328125 C10.40545815 2.57571037 10.42996513 4.02311035 10.42602539 5.46899414 C10.42594986 6.3898732 10.42587433 7.31075226 10.42579651 8.25953674 C10.42063522 9.26056931 10.41547394 10.26160187 10.41015625 11.29296875 C10.4087413 12.31257187 10.40732635 13.33217499 10.40586853 14.38267517 C10.40025097 17.65358357 10.3876955 20.92442463 10.375 24.1953125 C10.36998726 26.40690006 10.36542396 28.61848868 10.36132812 30.83007812 C10.35027584 36.26434607 10.33352063 41.69857447 10.3125 47.1328125 C8.35483719 47.21363344 6.39623272 47.27192028 4.4375 47.3203125 C2.80167969 47.37251953 2.80167969 47.37251953 1.1328125 47.42578125 C0.20210938 47.32910156 -0.72859375 47.23242188 -1.6875 47.1328125 C-3.75657114 44.0292058 -3.93705688 43.37354781 -3.93041992 39.86083984 C-3.93349655 39.00340179 -3.93657318 38.14596375 -3.93974304 37.26254272 C-3.93255753 36.34059113 -3.92537201 35.41863953 -3.91796875 34.46875 C-3.91751053 33.52093658 -3.91705231 32.57312317 -3.9165802 31.59658813 C-3.91355981 29.59432726 -3.90567988 27.5920687 -3.89331055 25.58984375 C-3.87503044 22.51293692 -3.87280103 19.43633051 -3.87304688 16.359375 C-3.8681326 14.41666405 -3.86230467 12.47395514 -3.85546875 10.53125 C-3.85435593 9.60524994 -3.8532431 8.67924988 -3.85209656 7.72518921 C-3.84571671 6.87405548 -3.83933685 6.02292175 -3.83276367 5.14599609 C-3.82895187 4.39337494 -3.82514008 3.64075378 -3.82121277 2.86532593 C-3.59610925 -0.0513354 -2.93658978 0.14512217 0 0 Z " fill="#EFEFEF" transform="translate(107.6875,105.8671875)"/>
<path d="M0 0 C4.021875 -0.0928125 4.021875 -0.0928125 8.125 -0.1875 C8.95789551 -0.21481201 9.79079102 -0.24212402 10.64892578 -0.27026367 C16.36912411 -0.33373044 20.21401557 0.83578034 24.8203125 4.4140625 C27.12577996 7.51346577 27.10580414 11.243953 27 15 C25.32257652 19.2867489 23.13314145 21.09778497 19 23 C15.7174106 23.35919357 12.48447417 23.2826455 9.1875 23.1875 C6.155625 23.125625 3.12375 23.06375 0 23 C0 15.41 0 7.82 0 0 Z " fill="#0C0C0C" transform="translate(533,96)"/>
<path d="M0 0 C3.34878789 2.67512502 4.22032472 5.89475606 5.5625 9.875 C7.24656342 14.85825905 7.24656342 14.85825905 9.15234375 19.7578125 C10 22 10 22 10 25 C3.73 25 -2.54 25 -9 25 C-8.28118457 20.68710745 -7.69435121 17.95633127 -5.96484375 14.14453125 C-4.68853925 11.30772488 -3.50433798 8.43574113 -2.3125 5.5625 C-1.87550781 4.51191406 -1.43851563 3.46132812 -0.98828125 2.37890625 C-0.66214844 1.59386719 -0.33601562 0.80882813 0 0 Z " fill="#121313" transform="translate(683,100)"/>
<path d="M0 0 C5.61 0 11.22 0 17 0 C17.06058594 2.07023437 17.12117187 4.14046875 17.18359375 6.2734375 C17.24616529 8.27572665 17.30876944 10.27801494 17.37231445 12.28027344 C17.41565846 13.6731259 17.45733396 15.06603131 17.49731445 16.45898438 C17.55502932 18.45976651 17.61921869 20.46035859 17.68359375 22.4609375 C17.72025146 23.66540527 17.75690918 24.86987305 17.79467773 26.11083984 C17.81052987 28.93996367 17.81052987 28.93996367 19 31 C18.01 31 17.02 31 16 31 C16 21.1 16 11.2 16 1 C11.38 1 6.76 1 2 1 C2 22.78 2 44.56 2 67 C6.62 67 11.24 67 16 67 C16 61.39 16 55.78 16 50 C16.33 50 16.66 50 17 50 C17 56.27 17 62.54 17 69 C11.39 69 5.78 69 0 69 C0 46.23 0 23.46 0 0 Z " fill="#BCBDBD" transform="translate(728,83)"/>
<path d="M0 0 C10.23 0 20.46 0 31 0 C31 0.99 31 1.98 31 3 C30.10692139 2.98428955 29.21384277 2.9685791 28.29370117 2.95239258 C24.97821244 2.90124561 21.66314325 2.86364188 18.34741211 2.83520508 C16.91277448 2.82012411 15.47818292 2.7996562 14.04370117 2.77368164 C11.98084141 2.73726563 9.91859142 2.72026757 7.85546875 2.70703125 C5.99378052 2.68346558 5.99378052 2.68346558 4.09448242 2.65942383 C1.00105573 2.72378498 1.00105573 2.72378498 -0.9284668 4.51831055 C-1.28207275 5.00726807 -1.63567871 5.49622559 -2 6 C-1.34 4.02 -0.68 2.04 0 0 Z " fill="#313232" transform="translate(668,137)"/>
<path d="M0 0 C0.66 0.33 1.32 0.66 2 1 C1.50628906 1.54269531 1.01257813 2.08539063 0.50390625 2.64453125 C-0.13675781 3.35996094 -0.77742187 4.07539062 -1.4375 4.8125 C-2.07558594 5.52019531 -2.71367187 6.22789063 -3.37109375 6.95703125 C-6.26587898 10.58766117 -6.25081448 14.19032323 -6.5625 18.6875 C-6.64628906 19.86699219 -6.73007813 21.04648438 -6.81640625 22.26171875 C-6.87699219 23.16535156 -6.93757812 24.06898437 -7 25 C-9.44950621 22.55049379 -9.32271254 21.75276979 -9.375 18.375 C-9.22954846 11.65513868 -6.93914311 6.76929941 -2.25 2 C-1.5075 1.34 -0.765 0.68 0 0 Z " fill="#575858" transform="translate(243,99)"/>
<path d="M0 0 C1.37562854 1.28965176 2.70766393 2.62689293 4 4 C4 4.66 4 5.32 4 6 C-1.94 6 -7.88 6 -14 6 C-14.33 5.34 -14.66 4.68 -15 4 C-9.72 4 -4.44 4 1 4 C0.67 2.68 0.34 1.36 0 0 Z " fill="#C7C6C6" transform="translate(574,146)"/>
<path d="M0 0 C0 0.66 0 1.32 0 2 C-1.49609375 3.21875 -1.49609375 3.21875 -3.4375 4.5 C-6.22531847 6.2865363 -6.22531847 6.2865363 -8 9 C-8.15004973 10.3734635 -8.24838006 11.7528526 -8.31640625 13.1328125 C-8.37924805 14.34130859 -8.37924805 14.34130859 -8.44335938 15.57421875 C-8.48267578 16.41597656 -8.52199219 17.25773437 -8.5625 18.125 C-8.60568359 18.97449219 -8.64886719 19.82398438 -8.69335938 20.69921875 C-8.79954236 22.79928223 -8.90028497 24.89961948 -9 27 C-9.33 27 -9.66 27 -10 27 C-11.20519065 8.02302976 -11.20519065 8.02302976 -6.6875 2.8125 C-4.15328027 0.45891647 -3.53987082 0 0 0 Z " fill="#2A2C2C" transform="translate(755,125)"/>
<path d="M0 0 C0.84046875 0.01804687 1.6809375 0.03609375 2.546875 0.0546875 C4.61507395 0.10169202 6.68268441 0.17343276 8.75 0.25 C8.09 0.91 7.43 1.57 6.75 2.25 C4.49848692 2.23845378 2.24704661 2.14221814 0 2 C-4.96891444 1.78901926 -4.96891444 1.78901926 -9.4375 3.578125 C-11.19791733 5.40151151 -11.19791733 5.40151151 -13.25 8.25 C-13.91 8.25 -14.57 8.25 -15.25 8.25 C-11.89212149 0.41495015 -7.92543802 -0.32197092 0 0 Z " fill="#CACBCC" transform="translate(782.25,82.75)"/>
<path d="M0 0 C0.33 0 0.66 0 1 0 C1 8.58 1 17.16 1 26 C1.99 26.33 2.98 26.66 4 27 C2.68 27.99 1.36 28.98 0 30 C0 20.1 0 10.2 0 0 Z " fill="#29292A" transform="translate(745,83)"/>
<path d="M0 0 C-1.44781793 3.44428265 -3.27694609 5.36130962 -6.125 7.75 C-7.21167969 8.67039062 -7.21167969 8.67039062 -8.3203125 9.609375 C-8.87460938 10.06828125 -9.42890625 10.5271875 -10 11 C-10 8 -10 8 -8.3203125 5.95703125 C-7.23363281 4.89548828 -7.23363281 4.89548828 -6.125 3.8125 C-5.40570313 3.09707031 -4.68640625 2.38164063 -3.9453125 1.64453125 C-2 0 -2 0 0 0 Z " fill="#D7D7D7" transform="translate(234,88)"/>
<path d="M0 0 C5.28 0 10.56 0 16 0 C15.67 0.99 15.34 1.98 15 3 C15 2.34 15 1.68 15 1 C12.89551062 1.14109986 10.7914123 1.28804175 8.6875 1.4375 C7.51574219 1.51871094 6.34398437 1.59992188 5.13671875 1.68359375 C1.97409042 1.8867371 1.97409042 1.8867371 -1 3 C-0.67 2.01 -0.34 1.02 0 0 Z " fill="#BFBEBF" transform="translate(340,83)"/>
<path d="M0 0 C0 0.66 0 1.32 0 2 C-1.53125 3.2890625 -1.53125 3.2890625 -3.5 4.625 C-4.1496875 5.07101563 -4.799375 5.51703125 -5.46875 5.9765625 C-5.9740625 6.31429687 -6.479375 6.65203125 -7 7 C-7.66 6.67 -8.32 6.34 -9 6 C-8.07213211 4.99105628 -7.13231567 3.99309093 -6.1875 3 C-5.66542969 2.443125 -5.14335938 1.88625 -4.60546875 1.3125 C-3 0 -3 0 0 0 Z " fill="#393C3C" transform="translate(755,125)"/>
<path d="M0 0 C0.66 0.33 1.32 0.66 2 1 C-0.31 3.64 -2.62 6.28 -5 9 C-5.33 8.34 -5.66 7.68 -6 7 C-4.02 4.69 -2.04 2.38 0 0 Z " fill="#353637" transform="translate(243,99)"/>
<path d="M0 0 C0.99 0.99 1.98 1.98 3 3 C2.67 3.66 2.34 4.32 2 5 C1.34 5 0.68 5 0 5 C-0.66 6.32 -1.32 7.64 -2 9 C-2.33 8.34 -2.66 7.68 -3 7 C-2.06421005 4.64018187 -1.06652192 2.30368736 0 0 Z " fill="#494A4B" transform="translate(683,100)"/>
</svg>
