<svg xmlns="http://www.w3.org/2000/svg" xmlns:xlink="http://www.w3.org/1999/xlink" viewBox="0,0,256,256" width="48px" height="48px" fill-rule="nonzero"><defs><linearGradient x1="4.57" y1="5.952" x2="19.43" y2="20.813" gradientUnits="userSpaceOnUse" id="color-1"><stop offset="0" stop-color="#000000" stop-opacity="0.6"></stop><stop offset="1" stop-color="#ffffff" stop-opacity="0.3"></stop></linearGradient><linearGradient x1="4.57" y1="5.952" x2="19.43" y2="20.813" gradientUnits="userSpaceOnUse" id="color-2"><stop offset="0" stop-color="#000000" stop-opacity="0.6"></stop><stop offset="0.493" stop-color="#ffffff" stop-opacity="0"></stop><stop offset="0.997" stop-color="#ffffff" stop-opacity="0.3"></stop></linearGradient><linearGradient x1="8.793" y1="14.379" x2="15.207" y2="20.793" gradientUnits="userSpaceOnUse" id="color-3"><stop offset="0" stop-color="#ffffff" stop-opacity="0.7"></stop><stop offset="0.519" stop-color="#ffffff" stop-opacity="0.45"></stop><stop offset="1" stop-color="#ffffff" stop-opacity="0.55"></stop></linearGradient></defs><g fill="none" fill-rule="nonzero" stroke="none" stroke-width="1" stroke-linecap="butt" stroke-linejoin="miter" stroke-miterlimit="10" stroke-dasharray="" stroke-dashoffset="0" font-family="none" font-weight="none" font-size="none" text-anchor="none" style="mix-blend-mode: normal"><g transform="scale(10.66667,10.66667)"><path d="M18,21h-12c-1.657,0 -3,-1.343 -3,-3v-9.235c0,-1.09 0.591,-2.093 1.543,-2.622l6,-3.333c0.906,-0.503 2.008,-0.503 2.914,0l6,3.333c0.952,0.529 1.543,1.533 1.543,2.622v9.235c0,1.657 -1.343,3 -3,3z" fill="url(#color-1)"></path><path d="M12,2.932c0.424,0 0.844,0.109 1.214,0.315l6,3.333c0.793,0.44 1.286,1.278 1.286,2.185v9.235c0,1.378 -1.122,2.5 -2.5,2.5h-12c-1.379,0 -2.5,-1.122 -2.5,-2.5v-9.235c0,-0.907 0.493,-1.745 1.286,-2.185l6,-3.333c0.37,-0.206 0.79,-0.315 1.214,-0.315M12,2.432c-0.502,0 -1.004,0.126 -1.457,0.378l-6,3.333c-0.952,0.529 -1.543,1.533 -1.543,2.622v9.235c0,1.657 1.343,3 3,3h12c1.657,0 3,-1.343 3,-3v-9.235c0,-1.09 -0.591,-2.093 -1.543,-2.622l-6,-3.333c-0.453,-0.252 -0.955,-0.378 -1.457,-0.378z" fill="url(#color-2)"></path><path d="M15,21h-6v-6c0,-1.105 0.895,-2 2,-2h2c1.105,0 2,0.895 2,2z" fill="url(#color-3)"></path></g></g></svg>