<svg xmlns="http://www.w3.org/2000/svg" xmlns:xlink="http://www.w3.org/1999/xlink" viewBox="0,0,256,256" width="48px" height="48px" fill-rule="nonzero"><defs><linearGradient x1="3.586" y1="3" x2="20.414" y2="19.828" gradientUnits="userSpaceOnUse" id="color-1"><stop offset="0" stop-color="#000000" stop-opacity="0.6"></stop><stop offset="1" stop-color="#ffffff" stop-opacity="0.3"></stop></linearGradient><linearGradient x1="3.586" y1="3" x2="20.414" y2="19.828" gradientUnits="userSpaceOnUse" id="color-2"><stop offset="0" stop-color="#000000" stop-opacity="0.6"></stop><stop offset="0.493" stop-color="#ffffff" stop-opacity="0"></stop><stop offset="0.997" stop-color="#ffffff" stop-opacity="0.3"></stop></linearGradient><linearGradient x1="10.293" y1="5.293" x2="13.707" y2="8.707" gradientUnits="userSpaceOnUse" id="color-3"><stop offset="0" stop-color="#ffffff" stop-opacity="0.7"></stop><stop offset="0.519" stop-color="#ffffff" stop-opacity="0.45"></stop><stop offset="1" stop-color="#ffffff" stop-opacity="0.55"></stop></linearGradient></defs><g fill="none" fill-rule="nonzero" stroke="none" stroke-width="1" stroke-linecap="butt" stroke-linejoin="miter" stroke-miterlimit="10" stroke-dasharray="" stroke-dashoffset="0" font-family="none" font-weight="none" font-size="none" text-anchor="none" style="mix-blend-mode: normal"><g transform="scale(10.66667,10.66667)"><path d="M18,21h-12c-1.657,0 -3,-1.343 -3,-3v-14c0,-0.552 0.448,-1 1,-1h16c0.552,0 1,0.448 1,1v14c0,1.657 -1.343,3 -3,3z" fill="url(#color-1)"></path><path d="M20,3.5c0.276,0 0.5,0.224 0.5,0.5v14c0,1.378 -1.122,2.5 -2.5,2.5h-12c-1.379,0 -2.5,-1.122 -2.5,-2.5v-14c0,-0.276 0.224,-0.5 0.5,-0.5h16M20,3h-16c-0.552,0 -1,0.448 -1,1v14c0,1.657 1.343,3 3,3h12c1.657,0 3,-1.343 3,-3v-14c0,-0.552 -0.448,-1 -1,-1z" fill="url(#color-2)"></path><path d="M14,8h-4c-0.552,0 -1,-0.448 -1,-1v0c0,-0.552 0.448,-1 1,-1h4c0.552,0 1,0.448 1,1v0c0,0.552 -0.448,1 -1,1z" fill="url(#color-3)"></path></g></g></svg>